<svg width="180" height="26" viewBox="0 0 180 26" fill="none" xmlns="http://www.w3.org/2000/svg">
<path d="M17.0547 7.566C17.0547 8.51933 16.812 9.42933 16.3267 10.296C15.8587 11.1627 15.2173 11.9253 14.4027 12.584C13.6053 13.2253 12.6607 13.7367 11.5687 14.118C10.494 14.4993 9.34999 14.69 8.13666 14.69C7.70333 14.69 7.35666 14.638 7.09666 14.534C6.85399 14.4127 6.57666 14.1873 6.26466 13.858C5.39799 15.7473 4.68733 17.4893 4.13266 19.084C3.59533 20.6613 3.17066 22.1953 2.85866 23.686C2.19999 23.53 1.66266 23.2527 1.24666 22.854C0.830661 22.4727 0.449328 21.9873 0.102661 21.398C0.275994 21.0687 0.483994 20.6353 0.726661 20.098C0.969328 19.5607 1.26399 18.902 1.61066 18.122C1.95733 17.3247 2.35599 16.38 2.80666 15.288C3.27466 14.1787 3.82066 12.8873 4.44466 11.414C4.72199 10.738 4.96466 10.1487 5.17266 9.646C5.38066 9.14333 5.56266 8.67533 5.71866 8.242C5.87466 7.79133 6.01333 7.34933 6.13466 6.916C6.27333 6.48267 6.41199 6.006 6.55066 5.486C5.736 5.746 4.98199 6.04933 4.28866 6.396C3.61266 6.74267 3.04933 7.10667 2.59866 7.488C2.44266 7.384 2.27799 7.228 2.10466 7.02C1.94866 6.812 1.80133 6.58667 1.66266 6.344C1.52399 6.084 1.40266 5.824 1.29866 5.564C1.19466 5.304 1.13399 5.07 1.11666 4.862C1.61933 4.51533 2.24333 4.19467 2.98866 3.9C3.73399 3.60533 4.53133 3.354 5.38066 3.146C6.22999 2.92067 7.10533 2.74733 8.00666 2.626C8.92533 2.50467 9.80066 2.444 10.6327 2.444C11.6207 2.444 12.5133 2.574 13.3107 2.834C14.108 3.07667 14.784 3.42333 15.3387 3.874C15.8933 4.32467 16.318 4.862 16.6127 5.486C16.9073 6.11 17.0547 6.80333 17.0547 7.566ZM12.4267 4.446C11.768 4.446 11.092 4.498 10.3987 4.602L10.7107 5.07C10.5373 5.29533 10.3207 5.63333 10.0607 6.084C9.80066 6.53467 9.51466 7.08067 9.20266 7.722C8.89066 8.346 8.54399 9.048 8.16266 9.828C7.79866 10.608 7.40866 11.4313 6.99266 12.298C8.34466 12.298 9.57533 12.1767 10.6847 11.934C11.794 11.674 12.7387 11.3273 13.5187 10.894C14.316 10.4433 14.9313 9.92333 15.3647 9.334C15.8153 8.74467 16.0407 8.112 16.0407 7.436C16.0407 6.53467 15.7373 5.81533 15.1307 5.278C14.524 4.72333 13.6227 4.446 12.4267 4.446Z" fill="white"/>
<path d="M24.8027 10.816C24.7333 11.8907 24.5427 12.818 24.2307 13.598C23.9187 14.3607 23.468 15.0367 22.8787 15.626C22.3067 16.198 21.6047 16.718 20.7727 17.186C19.9407 17.654 18.97 18.1047 17.8607 18.538C17.8607 18.642 17.852 18.7547 17.8347 18.876C17.8347 18.98 17.8347 19.0927 17.8347 19.214C17.8347 19.4393 17.852 19.6733 17.8867 19.916C17.9213 20.1587 17.982 20.384 18.0687 20.592C18.1553 20.8 18.2767 20.9733 18.4327 21.112C18.5887 21.2333 18.788 21.294 19.0307 21.294C19.4987 21.294 19.958 21.19 20.4087 20.982C20.8593 20.774 21.284 20.5227 21.6827 20.228C22.0987 19.916 22.48 19.5867 22.8267 19.24C23.1907 18.876 23.5113 18.5467 23.7887 18.252C23.962 18.408 24.1093 18.5553 24.2307 18.694C23.4507 19.734 22.5927 20.6007 21.6567 21.294C20.738 21.97 19.8627 22.4033 19.0307 22.594C17.8347 22.4553 16.8987 22.022 16.2227 21.294C15.564 20.5487 15.2347 19.656 15.2347 18.616C15.2347 17.9053 15.33 17.186 15.5207 16.458C15.7287 15.7127 16.006 15.002 16.3527 14.326C16.7167 13.6327 17.1327 12.9827 17.6007 12.376C18.086 11.7693 18.5973 11.2407 19.1347 10.79C19.6893 10.3393 20.2527 9.984 20.8247 9.724C21.414 9.464 21.9947 9.334 22.5667 9.334C23.364 9.438 24.1093 9.932 24.8027 10.816ZM23.0087 11.674C22.5407 11.7433 22.0553 11.934 21.5527 12.246C21.05 12.558 20.5733 12.974 20.1227 13.494C19.6893 14.014 19.2907 14.6207 18.9267 15.314C18.5627 16.0073 18.2767 16.7527 18.0687 17.55C19.4553 16.8567 20.608 16.0073 21.5267 15.002C22.4453 13.9793 22.9393 12.87 23.0087 11.674Z" fill="white"/>
<path d="M25.3824 21.06C25.469 20.5573 25.6164 19.8987 25.8244 19.084C26.0497 18.252 26.3097 17.3767 26.6044 16.458C26.899 15.522 27.211 14.586 27.5404 13.65C27.8697 12.714 28.1904 11.8733 28.5024 11.128C28.7277 10.5907 28.927 10.1747 29.1004 9.88C29.2737 9.568 29.4644 9.308 29.6724 9.1C29.915 9.13467 30.1664 9.19533 30.4264 9.282C30.6864 9.36867 30.9377 9.47267 31.1804 9.594C31.423 9.71533 31.6397 9.84533 31.8304 9.984C32.021 10.1053 32.1684 10.2267 32.2724 10.348C31.8044 10.9027 31.3884 11.5353 31.0244 12.246C30.6777 12.9567 30.3224 13.8667 29.9584 14.976C30.8944 14.144 31.7177 13.3467 32.4284 12.584C33.1564 11.8213 33.8324 10.972 34.4564 10.036C34.5604 9.94933 34.7424 9.906 35.0024 9.906C35.245 9.906 35.479 9.94933 35.7044 10.036C35.9297 10.1053 36.0857 10.2093 36.1724 10.348C35.8604 11.18 35.7044 12.0033 35.7044 12.818C35.7044 13.5807 35.817 14.1527 36.0424 14.534C36.025 14.638 35.9037 14.8373 35.6784 15.132C35.4704 15.4267 35.2364 15.704 34.9764 15.964C34.5084 15.7213 34.0924 15.392 33.7284 14.976C33.3644 14.5427 33.0957 14.0747 32.9224 13.572C32.1077 14.144 31.4144 14.7073 30.8424 15.262C30.2704 15.7993 29.7764 16.406 29.3604 17.082C28.9617 17.7407 28.615 18.5033 28.3204 19.37C28.043 20.2367 27.7744 21.268 27.5144 22.464C27.3584 22.4467 27.1677 22.386 26.9424 22.282C26.7344 22.1953 26.5177 22.0827 26.2924 21.944C26.0844 21.8053 25.8937 21.658 25.7204 21.502C25.547 21.346 25.4344 21.1987 25.3824 21.06Z" fill="white"/>
<path d="M45.0565 11.232C45.0391 11.5613 44.9785 11.908 44.8745 12.272C44.7878 12.6187 44.6751 12.9393 44.5365 13.234C44.3978 13.5113 44.2505 13.7453 44.0945 13.936C43.9385 14.1267 43.7911 14.222 43.6525 14.222C43.4618 14.2047 43.3491 14.0747 43.3145 13.832C43.3145 13.78 43.3318 13.702 43.3665 13.598C43.4185 13.4767 43.4705 13.3467 43.5225 13.208C43.5745 13.0693 43.6178 12.9307 43.6525 12.792C43.7045 12.6533 43.7305 12.532 43.7305 12.428C43.7305 12.1853 43.6698 11.986 43.5485 11.83C43.4445 11.6567 43.2971 11.57 43.1065 11.57C42.4131 11.57 41.8845 12.0033 41.5205 12.87C41.1565 13.7367 40.9745 15.0107 40.9745 16.692C40.9745 16.8653 40.9831 16.9693 41.0005 17.004C41.3645 16.9867 41.6851 16.978 41.9625 16.978C42.2571 16.9607 42.5431 16.952 42.8205 16.952C42.8378 16.9867 42.8465 17.056 42.8465 17.16C42.8465 17.316 42.8118 17.4287 42.7425 17.498C42.3438 17.5847 42.0231 17.6627 41.7805 17.732C41.5551 17.784 41.3818 17.836 41.2605 17.888C41.1391 17.94 41.0611 18.0007 41.0265 18.07C41.0091 18.122 41.0005 18.2 41.0005 18.304C41.0005 18.4427 41.0005 18.5813 41.0005 18.72C41.0178 18.8587 41.0265 19.032 41.0265 19.24C41.0265 20.696 40.6278 21.866 39.8305 22.75C39.0505 23.634 37.9585 24.1453 36.5545 24.284C36.3118 24.2667 36.0605 24.1973 35.8005 24.076C35.5405 23.9547 35.2891 23.7987 35.0465 23.608C34.8211 23.4173 34.6218 23.2007 34.4485 22.958C34.2751 22.7327 34.1538 22.4987 34.0845 22.256C34.0845 21.5973 34.2231 20.9733 34.5005 20.384C34.7778 19.7773 35.1505 19.2487 35.6185 18.798C36.1038 18.33 36.6671 17.9573 37.3085 17.68C37.9671 17.3853 38.6778 17.212 39.4405 17.16C39.4405 16.7267 39.3971 16.302 39.3105 15.886C39.2238 15.47 39.1285 15.0713 39.0245 14.69C38.9378 14.2913 38.8511 13.91 38.7645 13.546C38.6778 13.1647 38.6345 12.792 38.6345 12.428C38.6345 11.96 38.7298 11.5007 38.9205 11.05C39.1111 10.582 39.3625 10.1573 39.6745 9.776C39.9865 9.37733 40.3505 9.03933 40.7665 8.762C41.1825 8.48467 41.6158 8.294 42.0665 8.19C42.2571 8.242 42.5085 8.398 42.8205 8.658C43.1498 8.90067 43.4705 9.178 43.7825 9.49C44.0945 9.802 44.3718 10.1227 44.6145 10.452C44.8571 10.764 45.0045 11.024 45.0565 11.232ZM36.4765 23.088C36.8925 22.9147 37.2825 22.6633 37.6465 22.334C38.0278 22.0047 38.3571 21.632 38.6345 21.216C38.9118 20.8 39.1285 20.358 39.2845 19.89C39.4578 19.422 39.5445 18.9627 39.5445 18.512C39.1978 18.564 38.8165 18.7287 38.4005 19.006C37.9845 19.266 37.5945 19.5867 37.2305 19.968C36.8665 20.332 36.5631 20.7133 36.3205 21.112C36.0778 21.5107 35.9565 21.8573 35.9565 22.152C35.9565 22.5333 36.1298 22.8453 36.4765 23.088Z" fill="white"/>
<path d="M48.1427 22.49C47.1547 22.386 46.3661 21.9527 45.7767 21.19C45.1874 20.4273 44.8927 19.4567 44.8927 18.278C44.8927 17.5847 44.9967 16.8653 45.2047 16.12C45.4127 15.3747 45.7074 14.6553 46.0887 13.962C46.4701 13.2513 46.9207 12.584 47.4407 11.96C47.9607 11.336 48.5241 10.7987 49.1307 10.348C50.0841 9.63733 50.9767 9.282 51.8087 9.282C52.3634 9.57667 52.9094 10.192 53.4467 11.128C53.5334 11.128 53.6114 11.128 53.6807 11.128C53.7501 11.1107 53.8281 11.102 53.9147 11.102C54.8334 11.102 55.2927 11.9167 55.2927 13.546C55.2927 14.638 55.1107 15.678 54.7467 16.666C54.4001 17.6367 53.9061 18.5207 53.2647 19.318C52.6407 20.1153 51.8867 20.7913 51.0027 21.346C50.1361 21.8833 49.1827 22.2647 48.1427 22.49ZM49.4687 14.3C49.1741 14.6987 48.8967 15.132 48.6367 15.6C48.3767 16.068 48.1514 16.5447 47.9607 17.03C47.7701 17.498 47.6227 17.9573 47.5187 18.408C47.4147 18.8413 47.3627 19.2313 47.3627 19.578C47.3627 19.994 47.4321 20.3927 47.5707 20.774C47.7094 21.1553 47.8654 21.372 48.0387 21.424C48.8187 21.2507 49.5294 20.93 50.1707 20.462C50.8294 19.9767 51.3927 19.3787 51.8607 18.668C52.3461 17.9573 52.7187 17.1513 52.9787 16.25C53.2561 15.3487 53.3947 14.3867 53.3947 13.364C53.3947 12.9133 53.3687 12.558 53.3167 12.298C53.2647 12.038 53.1781 11.8127 53.0567 11.622C52.2941 11.8473 51.6094 12.2113 51.0027 12.714C50.4134 13.2167 49.9021 13.7453 49.4687 14.3Z" fill="white"/>
<path d="M60.7633 8.97C61.214 9.10867 61.6386 9.42067 62.0373 9.906C62.436 10.374 62.7306 10.894 62.9213 11.466C62.7306 11.934 62.436 12.4973 62.0373 13.156C61.6386 13.8147 61.24 14.4907 60.8413 15.184C60.4426 15.86 60.0786 16.51 59.7493 17.134C59.4373 17.7407 59.2553 18.2433 59.2033 18.642C59.4806 18.3473 59.784 18.0093 60.1133 17.628C60.46 17.2293 60.7893 16.8393 61.1013 16.458C61.4306 16.0593 61.734 15.704 62.0113 15.392C62.2886 15.0627 62.5053 14.82 62.6613 14.664C62.9906 14.3173 63.3806 13.9187 63.8313 13.468C64.282 13 64.75 12.5667 65.2353 12.168C65.738 11.752 66.2406 11.4053 66.7433 11.128C67.246 10.8333 67.7053 10.686 68.1213 10.686C68.572 10.686 68.9446 10.842 69.2393 11.154C69.5513 11.4487 69.794 11.7607 69.9673 12.09C69.9673 12.1247 69.898 12.1767 69.7593 12.246C69.638 12.298 69.456 12.4627 69.2133 12.74C68.9706 13.052 68.6933 13.4853 68.3813 14.04C68.0866 14.5773 67.792 15.1667 67.4973 15.808C67.22 16.432 66.986 17.0733 66.7953 17.732C66.6046 18.3907 66.5093 18.9887 66.5093 19.526C66.5093 19.9593 66.5613 20.2367 66.6653 20.358C66.7866 20.4793 66.9513 20.54 67.1593 20.54C67.35 20.54 67.5493 20.4967 67.7573 20.41C67.9653 20.3233 68.13 20.28 68.2513 20.28C68.3206 20.3147 68.3726 20.3927 68.4073 20.514C68.4593 20.618 68.4853 20.7133 68.4853 20.8C68.3466 20.9213 68.182 21.0427 67.9913 21.164C67.8006 21.2853 67.6013 21.398 67.3933 21.502C67.1853 21.606 66.9773 21.6927 66.7693 21.762C66.5786 21.8313 66.4053 21.866 66.2493 21.866C65.7466 21.866 65.3306 21.788 65.0013 21.632C64.6893 21.4933 64.438 21.3027 64.2473 21.06C64.074 20.8173 63.9526 20.5313 63.8833 20.202C63.814 19.8553 63.7793 19.4913 63.7793 19.11C63.7793 18.902 63.7966 18.668 63.8313 18.408C63.866 18.148 63.9353 17.8447 64.0393 17.498C64.1433 17.134 64.2906 16.7093 64.4813 16.224C64.672 15.7213 64.9146 15.1233 65.2093 14.43C65.1746 14.43 64.9406 14.5513 64.5073 14.794C64.074 15.0367 63.606 15.4093 63.1033 15.912C62.2886 16.692 61.552 17.4633 60.8933 18.226C60.252 18.9887 59.5933 19.838 58.9173 20.774C58.536 21.3113 58.198 21.762 57.9033 22.126C57.626 22.5073 57.3833 22.7587 57.1753 22.88C56.8113 22.672 56.5426 22.3773 56.3693 21.996C56.196 21.632 56.066 21.2507 55.9793 20.852C55.9793 20.5227 56.0226 20.1067 56.1093 19.604C56.2133 19.1013 56.3433 18.5467 56.4993 17.94C56.6726 17.316 56.8806 16.666 57.1233 15.99C57.366 15.314 57.6346 14.638 57.9293 13.962C58.588 12.4367 59.186 11.2407 59.7233 10.374C60.278 9.50733 60.6246 9.03933 60.7633 8.97Z" fill="white"/>
<path d="M79.5623 11.076C79.7357 11.076 79.935 11.1107 80.1603 11.18C80.403 11.232 80.6197 11.31 80.8103 11.414C81.001 11.5007 81.157 11.596 81.2783 11.7C81.417 11.804 81.4863 11.8993 81.4863 11.986C81.1397 12.714 80.819 13.4507 80.5243 14.196C80.2297 14.924 79.9783 15.626 79.7703 16.302C79.5623 16.978 79.3977 17.6107 79.2763 18.2C79.1723 18.7893 79.1203 19.3007 79.1203 19.734C79.1203 20.2193 79.1723 20.6267 79.2763 20.956C79.3803 21.268 79.5536 21.4933 79.7963 21.632C79.5883 21.7707 79.3196 21.8833 78.9903 21.97C78.661 22.0567 78.3663 22.1 78.1063 22.1C77.1703 22.1 76.7023 21.4587 76.7023 20.176C76.7023 19.188 77.0317 17.836 77.6903 16.12C77.3437 16.9173 76.945 17.6713 76.4943 18.382C76.0437 19.0753 75.5843 19.6907 75.1163 20.228C74.6483 20.7653 74.1717 21.2073 73.6863 21.554C73.2183 21.8833 72.785 22.0827 72.3863 22.152C71.745 22.1173 71.225 21.814 70.8263 21.242C70.4277 20.6527 70.2283 19.9073 70.2283 19.006C70.2283 18.0353 70.4363 17.0127 70.8523 15.938C71.2683 14.8633 71.797 13.8667 72.4383 12.948C73.097 12.0293 73.8077 11.2667 74.5703 10.66C75.333 10.036 76.0696 9.70667 76.7803 9.672C76.9537 9.724 77.1443 9.828 77.3523 9.984C77.5777 10.14 77.7857 10.322 77.9763 10.53C78.1843 10.738 78.3577 10.9547 78.4963 11.18C78.635 11.388 78.713 11.57 78.7303 11.726C78.037 11.83 77.3176 12.168 76.5723 12.74C75.8443 13.312 75.177 14.0053 74.5703 14.82C73.981 15.6173 73.4957 16.4753 73.1143 17.394C72.733 18.3127 72.5423 19.1707 72.5423 19.968C72.5423 20.2973 72.6637 20.5053 72.9063 20.592C73.409 20.488 73.9897 20.0633 74.6483 19.318C75.307 18.5553 76.1043 17.3853 77.0403 15.808C77.2137 15.496 77.4043 15.1493 77.6123 14.768C77.8377 14.3867 78.063 13.988 78.2883 13.572C78.5137 13.156 78.7303 12.74 78.9383 12.324C79.1637 11.8907 79.3717 11.4747 79.5623 11.076Z" fill="white"/>
<path d="M82.7792 19.916C82.7792 19.1533 82.9612 18.0873 83.3252 16.718C83.6892 15.3313 84.2005 13.7193 84.8592 11.882C85.9339 8.95267 86.9392 6.51733 87.8752 4.576C88.8285 2.61733 89.7559 1.092 90.6572 0C90.8652 0.0346662 91.1165 0.121332 91.4112 0.259999C91.7232 0.398666 92.0265 0.554667 92.3212 0.728C92.6159 0.884 92.8759 1.04867 93.1012 1.222C93.3439 1.39533 93.4999 1.534 93.5692 1.638C92.2172 3.23267 91.0299 4.94867 90.0072 6.786C88.9845 8.62333 88.0485 10.7293 87.1992 13.104C86.4712 15.1493 85.9165 16.9953 85.5352 18.642C85.1539 20.2713 84.9632 21.632 84.9632 22.724C84.9632 23.0187 84.9632 23.2007 84.9632 23.27C84.9632 23.3393 84.9719 23.4087 84.9892 23.478C84.7465 23.4433 84.5385 23.3827 84.3652 23.296C84.1919 23.2093 84.0792 23.1053 84.0272 22.984C83.9925 22.8973 83.8972 22.7673 83.7412 22.594C83.5852 22.438 83.4465 22.3167 83.3252 22.23C83.1692 22.126 83.0392 21.8573 82.9352 21.424C82.8312 20.9733 82.7792 20.4707 82.7792 19.916Z" fill="white"/>
<path d="M104.999 2.366C105.658 2.366 106.342 2.48733 107.053 2.73C107.764 2.97267 108.388 3.28467 108.925 3.666C108.752 4.55 108.587 5.34733 108.431 6.058C108.292 6.76867 108.162 7.41867 108.041 8.008C107.92 8.58 107.798 9.10867 107.677 9.594C107.573 10.062 107.469 10.504 107.365 10.92C106.949 12.48 106.516 13.8927 106.065 15.158C105.632 16.406 105.164 17.5327 104.661 18.538C104.176 19.5433 103.656 20.436 103.101 21.216C102.564 21.996 101.983 22.6807 101.359 23.27C100.752 23.842 100.146 24.31 99.5391 24.674C98.9324 25.038 98.369 25.272 97.8491 25.376C97.1557 25.376 96.5144 25.298 95.9251 25.142C95.3357 24.986 94.8244 24.7693 94.3911 24.492C93.9751 24.232 93.6457 23.9113 93.4031 23.53C93.1777 23.166 93.0651 22.7587 93.0651 22.308C93.0651 21.8227 93.1864 21.216 93.4291 20.488C93.6717 19.7427 94.0444 18.8673 94.5471 17.862C94.7551 17.8793 94.9977 17.9313 95.2751 18.018C95.5524 18.1047 95.8297 18.2087 96.1071 18.33C96.3844 18.4513 96.6357 18.59 96.8611 18.746C97.0864 18.8847 97.2511 19.0233 97.3551 19.162C96.8004 19.734 96.3497 20.3667 96.0031 21.06C95.6564 21.736 95.4831 22.3253 95.4831 22.828C95.4831 23.1227 95.5351 23.3827 95.6391 23.608C95.7604 23.8507 95.9597 24.0673 96.2371 24.258C97.2944 23.8593 98.3257 23.114 99.3311 22.022C100.336 20.9473 101.229 19.604 102.009 17.992C102.477 17.0387 102.902 15.9467 103.283 14.716C103.664 13.4853 103.985 12.2547 104.245 11.024C104.522 9.776 104.73 8.58867 104.869 7.462C105.025 6.318 105.103 5.356 105.103 4.576C105.103 4.45467 105.094 4.29 105.077 4.082C105.077 3.85667 105.068 3.63133 105.051 3.406C105.051 3.16333 105.042 2.94667 105.025 2.756C105.008 2.56533 104.999 2.43533 104.999 2.366Z" fill="white"/>
<path d="M111.137 22.49C110.149 22.386 109.36 21.9527 108.771 21.19C108.182 20.4273 107.887 19.4567 107.887 18.278C107.887 17.5847 107.991 16.8653 108.199 16.12C108.407 15.3747 108.702 14.6553 109.083 13.962C109.464 13.2513 109.915 12.584 110.435 11.96C110.955 11.336 111.518 10.7987 112.125 10.348C113.078 9.63733 113.971 9.282 114.803 9.282C115.358 9.57667 115.904 10.192 116.441 11.128C116.528 11.128 116.606 11.128 116.675 11.128C116.744 11.1107 116.822 11.102 116.909 11.102C117.828 11.102 118.287 11.9167 118.287 13.546C118.287 14.638 118.105 15.678 117.741 16.666C117.394 17.6367 116.9 18.5207 116.259 19.318C115.635 20.1153 114.881 20.7913 113.997 21.346C113.13 21.8833 112.177 22.2647 111.137 22.49ZM112.463 14.3C112.168 14.6987 111.891 15.132 111.631 15.6C111.371 16.068 111.146 16.5447 110.955 17.03C110.764 17.498 110.617 17.9573 110.513 18.408C110.409 18.8413 110.357 19.2313 110.357 19.578C110.357 19.994 110.426 20.3927 110.565 20.774C110.704 21.1553 110.86 21.372 111.033 21.424C111.813 21.2507 112.524 20.93 113.165 20.462C113.824 19.9767 114.387 19.3787 114.855 18.668C115.34 17.9573 115.713 17.1513 115.973 16.25C116.25 15.3487 116.389 14.3867 116.389 13.364C116.389 12.9133 116.363 12.558 116.311 12.298C116.259 12.038 116.172 11.8127 116.051 11.622C115.288 11.8473 114.604 12.2113 113.997 12.714C113.408 13.2167 112.896 13.7453 112.463 14.3Z" fill="white"/>
<path d="M126.617 21.008C126.288 20.7307 126.063 20.384 125.941 19.968C125.837 19.552 125.785 19.1967 125.785 18.902C125.785 18.538 125.829 18.226 125.915 17.966C125.846 17.966 125.69 18.1047 125.447 18.382C125.205 18.6593 124.936 18.9887 124.641 19.37C124.364 19.7513 124.087 20.124 123.809 20.488C123.532 20.852 123.324 21.1207 123.185 21.294C122.96 21.5367 122.743 21.7273 122.535 21.866C122.345 22.0047 122.189 22.0827 122.067 22.1C121.79 22.0827 121.495 22.022 121.183 21.918C120.889 21.8313 120.603 21.7013 120.325 21.528C120.065 21.3547 119.831 21.1467 119.623 20.904C119.433 20.6613 119.303 20.384 119.233 20.072C119.233 19.5867 119.242 19.188 119.259 18.876C119.294 18.564 119.355 18.226 119.441 17.862C119.597 17.2033 119.823 16.458 120.117 15.626C120.429 14.794 120.785 13.9793 121.183 13.182C121.582 12.3673 122.024 11.6133 122.509 10.92C123.012 10.2093 123.541 9.65467 124.095 9.256C124.251 9.256 124.433 9.27333 124.641 9.308C124.849 9.32533 125.057 9.36867 125.265 9.438C125.491 9.50733 125.699 9.594 125.889 9.698C126.097 9.78467 126.271 9.906 126.409 10.062C126.253 10.2353 125.855 10.816 125.213 11.804C124.589 12.792 123.887 14.2133 123.107 16.068C123.021 16.2587 122.917 16.536 122.795 16.9C122.674 17.264 122.553 17.6453 122.431 18.044C122.31 18.4427 122.206 18.8327 122.119 19.214C122.05 19.5953 122.015 19.8987 122.015 20.124C122.015 20.2627 122.033 20.3667 122.067 20.436C122.119 20.5053 122.163 20.5573 122.197 20.592C122.457 20.488 122.787 20.202 123.185 19.734C123.584 19.266 124.139 18.5467 124.849 17.576C125.023 17.3333 125.222 17.056 125.447 16.744C125.69 16.432 125.933 16.1027 126.175 15.756C126.418 15.392 126.643 15.0193 126.851 14.638C127.077 14.2567 127.259 13.8753 127.397 13.494C127.467 13.286 127.553 13.0433 127.657 12.766C127.779 12.4713 127.917 12.168 128.073 11.856C128.247 11.544 128.437 11.232 128.645 10.92C128.871 10.5907 129.131 10.2873 129.425 10.01C129.651 10.01 129.893 10.036 130.153 10.088C130.413 10.14 130.656 10.2093 130.881 10.296C131.124 10.3653 131.332 10.452 131.505 10.556C131.679 10.6427 131.809 10.738 131.895 10.842C131.583 11.6047 131.237 12.3587 130.855 13.104C130.474 13.8493 130.119 14.586 129.789 15.314C129.46 16.0247 129.183 16.7353 128.957 17.446C128.732 18.1567 128.619 18.85 128.619 19.526C128.619 19.89 128.645 20.2107 128.697 20.488C128.767 20.748 128.836 20.9733 128.905 21.164C128.975 21.3373 129.035 21.4847 129.087 21.606C129.157 21.7273 129.191 21.8313 129.191 21.918C129.191 21.9353 129.174 21.9613 129.139 21.996C129.122 22.0133 129.105 22.022 129.087 22.022C128.966 22.022 128.81 21.996 128.619 21.944C128.429 21.892 128.212 21.814 127.969 21.71C127.744 21.6233 127.51 21.5193 127.267 21.398C127.042 21.2767 126.825 21.1467 126.617 21.008Z" fill="white"/>
<path d="M131.769 21.06C131.856 20.5573 132.003 19.8987 132.211 19.084C132.436 18.252 132.696 17.3767 132.991 16.458C133.286 15.522 133.598 14.586 133.927 13.65C134.256 12.714 134.577 11.8733 134.889 11.128C135.114 10.5907 135.314 10.1747 135.487 9.88C135.66 9.568 135.851 9.308 136.059 9.1C136.302 9.13467 136.553 9.19533 136.813 9.282C137.073 9.36867 137.324 9.47267 137.567 9.594C137.81 9.71533 138.026 9.84533 138.217 9.984C138.408 10.1053 138.555 10.2267 138.659 10.348C138.191 10.9027 137.775 11.5353 137.411 12.246C137.064 12.9567 136.709 13.8667 136.345 14.976C137.281 14.144 138.104 13.3467 138.815 12.584C139.543 11.8213 140.219 10.972 140.843 10.036C140.947 9.94933 141.129 9.906 141.389 9.906C141.632 9.906 141.866 9.94933 142.091 10.036C142.316 10.1053 142.472 10.2093 142.559 10.348C142.247 11.18 142.091 12.0033 142.091 12.818C142.091 13.5807 142.204 14.1527 142.429 14.534C142.412 14.638 142.29 14.8373 142.065 15.132C141.857 15.4267 141.623 15.704 141.363 15.964C140.895 15.7213 140.479 15.392 140.115 14.976C139.751 14.5427 139.482 14.0747 139.309 13.572C138.494 14.144 137.801 14.7073 137.229 15.262C136.657 15.7993 136.163 16.406 135.747 17.082C135.348 17.7407 135.002 18.5033 134.707 19.37C134.43 20.2367 134.161 21.268 133.901 22.464C133.745 22.4467 133.554 22.386 133.329 22.282C133.121 22.1953 132.904 22.0827 132.679 21.944C132.471 21.8053 132.28 21.658 132.107 21.502C131.934 21.346 131.821 21.1987 131.769 21.06Z" fill="white"/>
<path d="M147.091 8.97C147.542 9.10867 147.967 9.42067 148.365 9.906C148.764 10.374 149.059 10.894 149.249 11.466C149.059 11.934 148.764 12.4973 148.365 13.156C147.967 13.8147 147.568 14.4907 147.169 15.184C146.771 15.86 146.407 16.51 146.077 17.134C145.765 17.7407 145.583 18.2433 145.531 18.642C145.809 18.3473 146.112 18.0093 146.441 17.628C146.788 17.2293 147.117 16.8393 147.429 16.458C147.759 16.0593 148.062 15.704 148.339 15.392C148.617 15.0627 148.833 14.82 148.989 14.664C149.319 14.3173 149.709 13.9187 150.159 13.468C150.61 13 151.078 12.5667 151.563 12.168C152.066 11.752 152.569 11.4053 153.071 11.128C153.574 10.8333 154.033 10.686 154.449 10.686C154.9 10.686 155.273 10.842 155.567 11.154C155.879 11.4487 156.122 11.7607 156.295 12.09C156.295 12.1247 156.226 12.1767 156.087 12.246C155.966 12.298 155.784 12.4627 155.541 12.74C155.299 13.052 155.021 13.4853 154.709 14.04C154.415 14.5773 154.12 15.1667 153.825 15.808C153.548 16.432 153.314 17.0733 153.123 17.732C152.933 18.3907 152.837 18.9887 152.837 19.526C152.837 19.9593 152.889 20.2367 152.993 20.358C153.115 20.4793 153.279 20.54 153.487 20.54C153.678 20.54 153.877 20.4967 154.085 20.41C154.293 20.3233 154.458 20.28 154.579 20.28C154.649 20.3147 154.701 20.3927 154.735 20.514C154.787 20.618 154.813 20.7133 154.813 20.8C154.675 20.9213 154.51 21.0427 154.319 21.164C154.129 21.2853 153.929 21.398 153.721 21.502C153.513 21.606 153.305 21.6927 153.097 21.762C152.907 21.8313 152.733 21.866 152.577 21.866C152.075 21.866 151.659 21.788 151.329 21.632C151.017 21.4933 150.766 21.3027 150.575 21.06C150.402 20.8173 150.281 20.5313 150.211 20.202C150.142 19.8553 150.107 19.4913 150.107 19.11C150.107 18.902 150.125 18.668 150.159 18.408C150.194 18.148 150.263 17.8447 150.367 17.498C150.471 17.134 150.619 16.7093 150.809 16.224C151 15.7213 151.243 15.1233 151.537 14.43C151.503 14.43 151.269 14.5513 150.835 14.794C150.402 15.0367 149.934 15.4093 149.431 15.912C148.617 16.692 147.88 17.4633 147.221 18.226C146.58 18.9887 145.921 19.838 145.245 20.774C144.864 21.3113 144.526 21.762 144.231 22.126C143.954 22.5073 143.711 22.7587 143.503 22.88C143.139 22.672 142.871 22.3773 142.697 21.996C142.524 21.632 142.394 21.2507 142.307 20.852C142.307 20.5227 142.351 20.1067 142.437 19.604C142.541 19.1013 142.671 18.5467 142.827 17.94C143.001 17.316 143.209 16.666 143.451 15.99C143.694 15.314 143.963 14.638 144.257 13.962C144.916 12.4367 145.514 11.2407 146.051 10.374C146.606 9.50733 146.953 9.03933 147.091 8.97Z" fill="white"/>
<path d="M165.89 11.076C166.064 11.076 166.263 11.1107 166.488 11.18C166.731 11.232 166.948 11.31 167.138 11.414C167.329 11.5007 167.485 11.596 167.606 11.7C167.745 11.804 167.814 11.8993 167.814 11.986C167.468 12.714 167.147 13.4507 166.852 14.196C166.558 14.924 166.306 15.626 166.098 16.302C165.89 16.978 165.726 17.6107 165.604 18.2C165.5 18.7893 165.448 19.3007 165.448 19.734C165.448 20.2193 165.5 20.6267 165.604 20.956C165.708 21.268 165.882 21.4933 166.124 21.632C165.916 21.7707 165.648 21.8833 165.318 21.97C164.989 22.0567 164.694 22.1 164.434 22.1C163.498 22.1 163.03 21.4587 163.03 20.176C163.03 19.188 163.36 17.836 164.018 16.12C163.672 16.9173 163.273 17.6713 162.822 18.382C162.372 19.0753 161.912 19.6907 161.444 20.228C160.976 20.7653 160.5 21.2073 160.014 21.554C159.546 21.8833 159.113 22.0827 158.714 22.152C158.073 22.1173 157.553 21.814 157.154 21.242C156.756 20.6527 156.556 19.9073 156.556 19.006C156.556 18.0353 156.764 17.0127 157.18 15.938C157.596 14.8633 158.125 13.8667 158.766 12.948C159.425 12.0293 160.136 11.2667 160.898 10.66C161.661 10.036 162.398 9.70667 163.108 9.672C163.282 9.724 163.472 9.828 163.68 9.984C163.906 10.14 164.114 10.322 164.304 10.53C164.512 10.738 164.686 10.9547 164.824 11.18C164.963 11.388 165.041 11.57 165.058 11.726C164.365 11.83 163.646 12.168 162.9 12.74C162.172 13.312 161.505 14.0053 160.898 14.82C160.309 15.6173 159.824 16.4753 159.442 17.394C159.061 18.3127 158.87 19.1707 158.87 19.968C158.87 20.2973 158.992 20.5053 159.234 20.592C159.737 20.488 160.318 20.0633 160.976 19.318C161.635 18.5553 162.432 17.3853 163.368 15.808C163.542 15.496 163.732 15.1493 163.94 14.768C164.166 14.3867 164.391 13.988 164.616 13.572C164.842 13.156 165.058 12.74 165.266 12.324C165.492 11.8907 165.7 11.4747 165.89 11.076Z" fill="white"/>
<path d="M169.107 19.916C169.107 19.1533 169.289 18.0873 169.653 16.718C170.017 15.3313 170.529 13.7193 171.187 11.882C172.262 8.95267 173.267 6.51733 174.203 4.576C175.157 2.61733 176.084 1.092 176.985 0C177.193 0.0346662 177.445 0.121332 177.739 0.259999C178.051 0.398666 178.355 0.554667 178.649 0.728C178.944 0.884 179.204 1.04867 179.429 1.222C179.672 1.39533 179.828 1.534 179.897 1.638C178.545 3.23267 177.358 4.94867 176.335 6.786C175.313 8.62333 174.377 10.7293 173.527 13.104C172.799 15.1493 172.245 16.9953 171.863 18.642C171.482 20.2713 171.291 21.632 171.291 22.724C171.291 23.0187 171.291 23.2007 171.291 23.27C171.291 23.3393 171.3 23.4087 171.317 23.478C171.075 23.4433 170.867 23.3827 170.693 23.296C170.52 23.2093 170.407 23.1053 170.355 22.984C170.321 22.8973 170.225 22.7673 170.069 22.594C169.913 22.438 169.775 22.3167 169.653 22.23C169.497 22.126 169.367 21.8573 169.263 21.424C169.159 20.9733 169.107 20.4707 169.107 19.916Z" fill="white"/>
</svg>
